<svg xmlns="http://www.w3.org/2000/svg" width="64.26" height="64.26" viewBox="0 0 64.26 64.26"><g id="Layer_2" data-name="Layer 2"><g id="Layer_1-2" data-name="Layer 1"><g id="ns_facebook_comment"><rect width="64.26" height="64.26" style="fill:#3b5999"/><path d="M47.26,14.85H17a5.78,5.78,0,0,0-5.72,5.84V39.52A5.79,5.79,0,0,0,17,45.35l.35,5.9,7-5.94H47.26A5.78,5.78,0,0,0,53,39.47V20.69A5.78,5.78,0,0,0,47.26,14.85Z" style="fill:#fff"/><path d="M33.19,27.09V25a1.54,1.54,0,0,1,1.55-1.55h1.61V19.41h-3a4.66,4.66,0,0,0-4.65,4.66v3H25.5v4.07h3.17v8.59h4.52V31.16h2.44l1.62-4.07Z" style="fill:#3b5999"/></g></g></g></svg>