<svg xmlns="http://www.w3.org/2000/svg" width="64" height="64" viewBox="0 0 64 64"><g id="Layer_2" data-name="Layer 2"><g id="Layer_1-2" data-name="Layer 1"><g id="ns_facebook_comment"><rect width="64" height="64" style="fill:#3b5999"/><path d="M45.13,17.12H18.87a5,5,0,0,0-5,5.07V38.53a5,5,0,0,0,5,5.06l.31,5.12,6.05-5.16h19.9a5,5,0,0,0,5-5.06V22.19A5,5,0,0,0,45.13,17.12Z" style="fill:#fff"/><path d="M32.92,27.75V26a1.34,1.34,0,0,1,1.34-1.35h1.4V21.08H33a4,4,0,0,0-4,4v2.63H26.25v3.53H29v7.45h3.93V31.28H35l1.42-3.53Z" style="fill:#3b5999"/></g></g></g></svg>